<svg xmlns="http://www.w3.org/2000/svg" aria-hidden="true" style="position:absolute;width:0;height:0;overflow:hidden"><defs><symbol id="icon-close" viewBox="0 0 37 32"><path stroke-linecap="round" stroke-linejoin="round" stroke-width="3.556" d="m2.667 2.667 32 26.667m-32-.001 32-26.667"/></symbol><symbol id="icon-menu" viewBox="0 0 32 32"><path stroke-linecap="round" stroke-linejoin="round" stroke-width="2.667" d="M4 6h24M4 16h24M4 26h24"/></symbol><symbol id="icon-arrow" viewBox="0 0 40 32"><path stroke-width="1.167" d="m17.115 1.939-.412-.412L3.697 14.533 2.293 16l1.413 1.477 12.997 12.997 2.953-2.953-9.456-9.456h28.878v-4.128H10.2l9.456-9.456-2.541-2.541z"/></symbol><symbol id="icon-circle" viewBox="0 0 32 32"><path d="M16.688 30.603c-8.213 0-14.784-6.571-14.784-14.784S8.475 1.035 16.688 1.035c8.213 0 14.784 6.571 14.784 14.784s-6.571 14.784-14.784 14.784z"/></symbol><symbol id="icon-facebook" viewBox="0 0 19 32"><path d="M12.319 30.981V17.153h4.875l.73-5.389h-5.605V8.323c0-1.56.455-2.624 2.805-2.624l2.997-.001V.878c-.518-.066-2.298-.212-4.368-.212-4.322 0-7.28 2.511-7.28 7.124v3.974H1.585v5.389h4.888v13.828h5.846z"/></symbol><symbol id="icon-instagram" viewBox="0 0 32 32"><path d="M1.434 15.823c0-6.055 0-9.082 1.443-11.263a8.676 8.676 0 0 1 2.452-2.452C7.51.665 10.537.665 16.592.665s9.082 0 11.263 1.443a8.676 8.676 0 0 1 2.452 2.452c1.443 2.181 1.443 5.208 1.443 11.263s0 9.082-1.443 11.263a8.676 8.676 0 0 1-2.452 2.452c-2.181 1.443-5.208 1.443-11.263 1.443s-9.082 0-11.263-1.443a8.676 8.676 0 0 1-2.452-2.452c-1.443-2.181-1.443-5.208-1.443-11.263zm23.005.001a7.848 7.848 0 1 1-15.695 0 7.848 7.848 0 0 1 15.695 0zm-7.847 5.192a5.192 5.192 0 1 0 0-10.384 5.192 5.192 0 0 0 0 10.384zm8.157-11.59a1.845 1.845 0 1 0-.001-3.69 1.845 1.845 0 0 0 .001 3.69z"/></symbol><symbol id="icon-linkedin" viewBox="0 0 32 32"><path d="M1.434 5.583c0-.972.341-1.774 1.024-2.406s1.57-.948 2.663-.948c1.073 0 1.941.311 2.604.933.683.642 1.024 1.478 1.024 2.508 0 .933-.332 1.711-.995 2.333-.683.642-1.58.962-2.692.962h-.029c-1.073 0-1.941-.321-2.604-.962s-.995-1.448-.995-2.421zm.381 25.519V11.621h6.496v19.481H1.815zm10.095 0h6.496V20.224c0-.68.078-1.205.234-1.575.273-.661.688-1.22 1.244-1.677s1.253-.685 2.092-.685c2.185 0 3.277 1.468 3.277 4.404v10.411h6.496v-11.17c0-2.877-.683-5.06-2.049-6.547s-3.17-2.231-5.413-2.231c-2.517 0-4.477 1.079-5.882 3.237v.058h-.029l.029-.058V11.62h-6.496c.039.622.059 2.557.059 5.804s-.02 7.806-.059 13.678z"/></symbol><symbol id="icon-logo" viewBox="0 0 236 32"><path d="M36.774 20.308c-.281 2.435-1.139 4.511-2.576 6.228s-3.387 3.028-5.854 3.934c-2.466.905-5.401 1.358-8.804 1.358-2.841 0-5.448-.328-7.82-.983-2.341-.656-4.371-1.639-6.088-2.95a13.585 13.585 0 0 1-3.934-4.87C.761 21.058.293 18.764.293 16.141s.468-4.917 1.405-6.884A13.475 13.475 0 0 1 5.632 4.34c1.717-1.342 3.746-2.341 6.088-2.997C14.093.656 16.7.313 19.54.313c3.403 0 6.338.468 8.804 1.405 2.498.937 4.464 2.279 5.901 4.027 1.436 1.717 2.279 3.809 2.529 6.275h-6.181a7.844 7.844 0 0 0-2.061-3.372c-.937-.968-2.154-1.701-3.653-2.201s-3.278-.749-5.339-.749c-2.56 0-4.808.406-6.743 1.218-1.936.78-3.434 1.951-4.496 3.512-1.062 1.53-1.592 3.434-1.592 5.713 0 2.248.531 4.137 1.592 5.666s2.56 2.7 4.496 3.512c1.936.78 4.183 1.171 6.743 1.171 2.061 0 3.824-.25 5.292-.749 1.499-.5 2.716-1.218 3.653-2.154a8.34 8.34 0 0 0 2.107-3.278h6.181zm24.497 11.52c-4.027 0-7.477-.624-10.349-1.873-2.841-1.28-5.026-3.091-6.556-5.432-1.499-2.341-2.248-5.151-2.248-8.429 0-3.309.749-6.135 2.248-8.476 1.53-2.341 3.715-4.137 6.556-5.385C53.794.953 57.244.313 61.271.313c4.059 0 7.508.64 10.349 1.92 2.841 1.249 5.011 3.044 6.509 5.385 1.53 2.341 2.295 5.167 2.295 8.476 0 3.278-.765 6.088-2.295 8.429-1.498 2.341-3.668 4.152-6.509 5.432-2.841 1.249-6.291 1.873-10.349 1.873zm0-5.385c2.498 0 4.683-.375 6.556-1.124 1.904-.749 3.387-1.889 4.449-3.419 1.093-1.53 1.639-3.465 1.639-5.807s-.546-4.277-1.639-5.807c-1.061-1.53-2.544-2.669-4.449-3.419-1.873-.78-4.059-1.171-6.556-1.171-2.466 0-4.667.39-6.603 1.171-1.936.749-3.45 1.889-4.542 3.419s-1.639 3.465-1.639 5.807c0 2.341.546 4.277 1.639 5.807s2.607 2.669 4.542 3.419c1.936.749 4.137 1.124 6.603 1.124zm49.178 1.686h-2.95L124.92.921h6.228V31.22h-6.228V9.21l1.499.421-13.908 21.588h-6.978L91.625 9.724l1.499-.421v21.916h-6.228V.92h6.228l17.327 27.208zm51.839 0h-2.95L176.759.921h6.228V31.22h-6.228V9.21l1.499.421-13.908 21.588h-6.978L143.464 9.724l1.499-.421v21.916h-6.228V.92h6.228l17.327 27.208zM191.461.921h6.228V31.22h-6.228V.921zm12.014 0h31.938v5.198h-31.938V.921zm12.878 4.542h6.228v25.756h-6.228V5.463z"/></symbol></defs></svg>